<?xml version="1.0" encoding="utf-8"?>
<!-- Generator: Adobe Illustrator 25.2.0, SVG Export Plug-In . SVG Version: 6.00 Build 0)  -->
<svg version="1.1" id="Layer_1" xmlns="http://www.w3.org/2000/svg" xmlns:xlink="http://www.w3.org/1999/xlink" x="0px" y="0px"
	 viewBox="0 0 300 82" style="enable-background:new 0 0 300 82;" xml:space="preserve">
<style type="text/css">
	.st0{fill:#D40029;}
	.st1{fill:url(#outer_1_);}
	.st2{fill:url(#SVGID_1_);}
	.st3{opacity:0.4;fill:url(#SVGID_2_);enable-background:new    ;}
	.st4{fill:#FFFFFF;}
	.st5{opacity:0.4;fill:url(#SVGID_3_);enable-background:new    ;}
	.st6{fill:#565F64;}
	.st7{fill:url(#SVGID_4_);}
	.st8{fill:#A4AAAE;fill-opacity:0.6;}
	.st9{fill:#333E46;}
	.st10{fill:url(#SVGID_5_);}
	.st11{fill:url(#SVGID_6_);fill-opacity:0.8;}
	.st12{opacity:0.8;fill:url(#SVGID_7_);enable-background:new    ;}
	.st13{fill:url(#SVGID_8_);}
	.st14{fill:url(#SVGID_9_);}
	.st15{fill:url(#SVGID_10_);}
	.st16{fill:url(#SVGID_11_);}
	.st17{fill:url(#SVGID_12_);}
	.st18{fill:url(#SVGID_13_);}
	.st19{fill:url(#SVGID_14_);}
	.st20{fill:#FBFBFB;}
	.st21{fill:#333F47;}
	.st22{fill:#656565;}
	.st23{fill:#EC1E23;}
</style>
<g id="Group_1" transform="translate(-17.689 -14.102)">
	<path id="Path_1" d="M90.6,28.2h5v15.4h27.6v-6.7h5.1v6.7h1.8v-6.7h5.1v6.8h1.7c0-0.2,0-0.4,0-0.7c0-1.8,0-3.7,0-5.5
		c0-0.5,0.1-0.6,0.6-0.6c1.5,0,2.9,0,4.5,0v6.8h1.7v-6.7h5.1v6.7h18.9V28.2h5.1v15.3h1.7V28.2h5.1v20.5H90.6V28.2z"/>
	<path id="Path_2" d="M212.5,40.2h-1.7v1.6h-5.1v-5c0.2,0,0.4,0,0.6,0c2.6,0,5.1,0,7.7,0c0.3,0,0.5,0,0.8,0c1.6,0,2.8,1.3,2.8,2.8
		c0,0,0,0,0,0.1c0,1,0,2.1,0,3.1c0,0.2,0,0.4,0,0.7H264V42h-10.2v-5.2h5v-8.6h5.1v8.5c0.6,0.1,1.2,0.2,1.8,0.3
		c1.8,0.3,3.2,1.8,3.3,3.7c0.1,2.6,0,5.3,0,8h-63.3v-5h6.8V40.2z"/>
	<path id="Path_3" d="M192.3,61.1c1.4,0,2.8,0,4.1,0c0.2,0,0.4,0.2,0.5,0.4c1.8,3.8,3.6,7.7,5.4,11.5c0.1,0.3,0.3,0.5,0.4,0.9
		c0.7-1.5,1.3-2.8,1.9-4.2c1.2-2.7,2.4-5.3,3.6-8c0.1-0.4,0.5-0.7,1-0.6c1.2,0,2.4,0,3.6,0c0.7,6.9,1.4,13.7,2.2,20.6h-5
		c-0.4-4.3-0.9-8.5-1.3-12.7l-0.1,0c-0.1,0.3-0.3,0.5-0.4,0.8c-1.7,3.8-3.5,7.7-5.2,11.5c-0.2,0.4-0.4,0.5-0.9,0.6
		c-1.1,0.2-1.5-0.3-1.9-1.2c-1.7-3.7-3.4-7.4-5.2-11.1c-0.1-0.2-0.2-0.4-0.4-0.5c-0.4,4.2-0.7,8.5-1.1,12.8h-3.3
		C191,74.8,191.6,68,192.3,61.1z"/>
	<path id="Path_4" d="M95.5,61.3v8.4h7.1v-8.4h4.9v20.4h-4.9V73h-7.1v8.6h-4.9V61.3H95.5z"/>
	<path id="Path_5" d="M178.2,80.8c-0.8,0.4-1.7,0.8-2.6,1c-2.8,0.7-5.7-1.1-6.3-3.9c0,0,0,0,0-0.1c-0.6-2.1-0.6-4.3,0.2-6.4
		c1-2.8,3.9-4.5,6.8-4.1l1.2,0.1v-8l4.8-1v23.2c-1.1,0-2.1,0-3.2,0C178.9,81.6,178.5,81.1,178.2,80.8z M177.6,70.5
		c-0.8,0-1.5,0.1-2.2,0.1c-0.5,0-0.9,0.4-1,0.9c-0.5,1.6-0.6,3.4-0.3,5c0.1,1.2,1.1,2.1,2.2,2c0.5,0,0.9-0.2,1.3-0.5L177.6,70.5z"/>
	<path id="Path_6" d="M152.8,58.5v23.2c-1.1,0-2.1,0-3.1,0c-0.2,0-0.4-0.3-0.6-0.4c-0.2-0.2-0.3-0.4-0.5-0.6
		c-0.3,0.2-0.6,0.3-0.9,0.5c-2.6,1.5-5.9,0.7-7.4-1.9c-0.1-0.2-0.2-0.4-0.3-0.5c-1.2-2.7-1.1-5.7,0.3-8.3c1.3-2.5,3.7-3.3,6.4-3.1
		c0.4,0,0.8,0.1,1.3,0.1v-0.7c0-2.2,0-4.5,0-6.7c0-0.4,0.1-0.7,0.6-0.7C150,59.1,151.4,58.8,152.8,58.5z M147.9,74.4v-2.1
		c0-1.9-0.2-2-2.1-1.7c-0.1,0-0.1,0-0.2,0c-0.5,0-0.8,0.4-0.9,0.8c-0.5,1.7-0.6,3.4-0.3,5.1c0.3,1.7,1.3,2.2,3,1.8
		c0.4-0.1,0.5-0.3,0.5-0.7C147.9,76.6,147.9,75.5,147.9,74.4L147.9,74.4z"/>
	<path id="Path_7" d="M137.2,81.7c-1.1,0-2.1,0-3.1,0c-0.2,0-0.4-0.3-0.6-0.4c-0.1-0.1-0.3-0.3-0.4-0.5c-0.8,0.4-1.7,0.8-2.6,1.1
		c-2.8,0.7-5.5-1-6.3-3.7c-0.7-2.2-0.7-4.6,0.2-6.8c1.1-2.7,3.9-4.3,6.8-3.9l1.3,0.1v-8l4.8-1L137.2,81.7z M132.4,74.4v-2.2
		c0-1.9-0.2-2-2.1-1.7c-0.6,0-1.1,0.5-1.3,1.1c-0.4,1.6-0.5,3.3-0.2,4.9c0.3,1.7,1.4,2.3,3.1,1.8c0.3,0,0.5-0.3,0.5-0.6
		C132.4,76.6,132.4,75.5,132.4,74.4L132.4,74.4z"/>
	<path id="Path_8" d="M57.1,81.7c0.5-1.4,1-2.8,1.5-4.1c2-5.2,4-10.5,6-15.7c0.1-0.3,0.3-0.5,0.6-0.5c1.2-0.2,2.4-0.4,3.6-0.7
		c0.4-0.1,0.5,0.2,0.6,0.5c2,5.9,4.1,11.9,6.1,17.8c0.3,0.9,0.6,1.7,0.9,2.7h-2.8c-0.7,0-1.3,0-2,0c-0.3,0.1-0.6-0.2-0.7-0.5
		c0,0,0,0,0,0c-0.6-1.8-1.2-3.6-1.8-5.4c-0.1-0.4-0.3-0.6-0.8-0.6c-1.7,0.1-3.3,0.1-5,0.1c-0.3,0-0.6,0.2-0.7,0.5
		c-0.6,1.8-1.2,3.6-1.8,5.4c-0.1,0.4-0.4,0.6-0.8,0.6c0,0,0,0,0,0C59.2,81.7,58.2,81.7,57.1,81.7z M66.1,66.3l-2,5.8h4L66.1,66.3z"
		/>
	<path id="Path_9" d="M70,36.8H75v11.9H59.7c0-0.2,0-0.4,0-0.6c0-2.5,0-5.1,0-7.6c0-0.6,0.1-1.2,0.2-1.8c0.3-1.1,1.3-1.8,2.4-1.8
		c1.4-0.1,2.7,0,4.1,0v1.6c-0.1,0-0.3,0.1-0.4,0.1c-0.7,0-1.2,0.6-1.3,1.3c-0.1,1.1,0,2.1,0,3.2c0,0.2,0,0.4,0,0.6H70L70,36.8z"/>
	<path id="Path_10" d="M256.1,74.2c-0.1,3.5-1,6-4,7.2c-1.8,0.7-3.8,0.8-5.6,0.2c-2-0.5-3.6-2-4.2-4c-0.6-1.8-0.6-3.8-0.1-5.6
		c0.6-2.3,2.4-4,4.7-4.4c1.3-0.3,2.7-0.3,4.1,0c2.2,0.4,4,2,4.5,4.1C255.9,72.5,256,73.3,256.1,74.2z M251.2,75l-0.1,0
		c0-0.6,0-1.2,0-1.8c0-0.4-0.1-0.7-0.2-1.1c-0.4-1.5-1-1.9-2.6-1.6c-0.5,0-1,0.5-1,1c-0.3,1.8-0.3,3.6-0.1,5.4
		c0.3,1.9,1.1,2.4,2.8,2c0.4,0,0.7-0.3,0.8-0.7C250.9,77.1,251,76,251.2,75L251.2,75z"/>
	<path id="Path_11" d="M230.5,74.6c0.2,2-0.5,3.9-1.8,5.4c-1.6,1.6-3.9,2.3-6.1,1.9c-2,0-3.9-1-5-2.7c-0.5-0.9-0.9-1.9-1-2.9
		c-0.3-1.7-0.2-3.4,0.4-5c0.7-2,2.4-3.4,4.5-3.8c1.5-0.3,3-0.3,4.5,0.1c2.6,0.7,4.5,3.1,4.5,5.8C230.5,73.8,230.5,74.2,230.5,74.6z
		 M225.6,74.9c-0.1-1-0.2-1.9-0.4-2.9c-0.3-1.5-1.2-2-2.7-1.6c-0.5,0.1-0.8,0.4-0.9,0.9c-0.4,1.9-0.4,3.9,0,5.8
		c0.3,1.6,1.2,2.1,2.8,1.7c0.4,0,0.7-0.3,0.8-0.7C225.3,77.1,225.5,76,225.6,74.9z"/>
	<path id="Path_12" d="M111.5,71.6l-0.9-2.4c2.6-1.1,5.1-2.2,8-1.7c1.5,0.1,2.7,1.4,2.8,2.9c0.1,2.1,0.1,4.3,0.1,6.5
		c0,0.4,0,0.8,0,1.2c0,0.5,0.3,0.7,0.8,0.6c0.4-0.1,0.9-0.2,1.4-0.3c0,0.6,0,1.2,0,1.7c0,0.1-0.1,0.3-0.2,0.4
		c-0.9,0.8-2.1,1.4-3.4,1.5c-1.1,0.2-2.2-0.3-2.8-1.2c-0.9,0.5-1.9,0.8-2.8,1.1c-3,0.7-5.2-1.3-5-4.5c0.2-2.7,1.5-4.1,4.3-4.3
		c0.9-0.1,1.8-0.1,2.7-0.2c0-0.5,0-0.9,0-1.4s-0.2-0.8-0.6-0.7c-1,0.1-2,0.2-3,0.4C112.4,71.2,111.9,71.4,111.5,71.6z M116.6,75.3
		c-1.7-0.2-2,0-2,1.6c0,0.1,0,0.2,0,0.4c0.1,1.3,0.6,1.6,1.7,1c0.1-0.1,0.2-0.2,0.2-0.3C116.7,77.1,116.6,76.2,116.6,75.3z"/>
	<path id="Path_13" d="M161.8,72.9c0-0.4,0-0.7,0-0.9c0-1.1-0.3-1.4-1.4-1.2c-1.2,0.2-2.4,0.5-3.8,0.7l-0.9-2.3
		c1.1-0.4,2.3-0.9,3.4-1.2c1.5-0.5,3-0.7,4.5-0.5c1.5,0.1,2.6,1.3,2.8,2.7c0.1,0.4,0.1,0.9,0.1,1.3c0,1.8,0,3.5,0,5.3
		c0,0.3,0,0.5,0,0.8c0.1,1,0.2,1.2,1.3,0.9c0.3-0.1,0.6-0.1,1-0.2c0,0.6,0,1.2,0,1.7c0,0.1-0.1,0.2-0.1,0.3c-0.9,1.2-3.6,2-4.9,1.5
		c-0.5-0.3-1-0.6-1.4-1c-0.9,0.4-1.8,0.8-2.7,1.1c-3,0.7-5.1-1.1-5-4.3c0.1-2.5,1.1-3.8,3.3-4.3c0.8-0.1,1.5-0.2,2.3-0.3
		C160.8,72.9,161.2,72.9,161.8,72.9z M161.8,75.4c-1.6-0.2-2,0.1-2,1.5c0,0.1,0,0.3,0,0.4c0.1,1.4,0.2,1.5,1.7,1
		c0.1-0.1,0.2-0.2,0.3-0.3C161.8,77.1,161.8,76.2,161.8,75.4L161.8,75.4z"/>
	<path id="Path_14" d="M190.2,40.2v1.6h-5.1v-5h8.2c0.3,0,0.5,0,0.8,0c1.6,0,2.8,1.2,2.9,2.8c0,0.1,0,0.1,0,0.2c0,3,0,5.9,0,8.9
		h-11.9v-5.1h6.8v-3.4H190.2z"/>
	<path id="Path_15" d="M81.9,58.5v23.2h-4.7V59.5L81.9,58.5z"/>
	<path id="Path_16" d="M267.1,80.4l1.3-3.5c0.8,0.5,1.5,0.9,2.2,1.3c0.8,0.5,1.7,0.7,2.6,0.7c0.3,0,0.7-0.2,0.8-0.4
		c0.1-0.4,0.3-1-0.3-1.3c-0.5-0.3-1-0.5-1.6-0.7c-0.9-0.3-1.7-0.7-2.5-1.1c-1.8-1.1-2.5-3.4-1.4-5.3c0.2-0.3,0.4-0.7,0.7-0.9
		c0.9-1,2.1-1.7,3.5-1.7c1.7,0,3.4,0.1,5.2,0.2c-0.2,1.4-0.4,2.6-0.6,3.9c-0.8-0.2-1.5-0.5-2.2-0.6c-0.8-0.2-1.5-0.3-2.3-0.3
		c-0.2,0-0.5,0.2-0.5,0.3c0,0.3,0.1,0.5,0.3,0.7c0.5,0.3,1.1,0.5,1.7,0.8c0.9,0.4,1.8,0.8,2.7,1.3c2.1,1.3,2.1,4.4,0.5,6.2
		c-1.6,1.8-4.1,2.6-6.5,2C269.3,81.6,268.1,81.1,267.1,80.4z"/>
	<path id="Path_17" d="M76.8,28.2h5v20.5h-5V28.2z"/>
	<path id="Path_18" d="M203.9,48.7h-5.1V28.2h5.1V48.7z"/>
	<path id="Path_19" d="M270.9,28.2h5v20.5h-5V28.2z"/>
	<path id="Path_20" d="M241.5,67.6c-0.1,0.8-0.1,1.5-0.3,2.2c0,0.2-0.3,0.4-0.6,0.4c-0.9,0.1-1.7,0.2-2.6,0.3c-0.2,0-0.3,0-0.5,0
		c0,0.2,0,0.5,0,0.7c0,1.9,0,3.7,0,5.6c0,0.3,0,0.6,0,0.9c0,0.3,0.2,0.6,0.5,0.6c0.1,0,0.1,0,0.2,0l3.2-0.3c0,0.6,0,1.2,0,1.8
		c0,0.2-0.1,0.3-0.3,0.4c-1.4,0.9-3.1,1.5-4.8,1.7c-0.6,0.1-1.1,0-1.6-0.1c-1.1-0.2-1.9-1-2-2.1c-0.1-0.4-0.1-0.9-0.1-1.3
		c0-2.5,0-5,0-7.4c0-0.5-0.1-0.7-0.6-0.8c-0.3-0.1-0.7-0.3-0.8-0.5c-0.1-0.6-0.3-1.2,0.5-1.7c1-0.6,2-1.3,2.8-2
		c0.8-0.6,1.8-0.8,2.8-0.6v2.2H241.5z"/>
	<path id="Path_21" d="M83.7,36.8h5.1c0,0.2,0,0.3,0,0.4c0,3.8,0,7.6,0,11.3c0,1-0.2,1.9-0.5,2.8c-0.4,1.1-1.3,2-2.5,2.2
		c-1.2,0.2-2.5,0.3-3.8,0.4v-1.7c1.5-0.4,1.7-0.7,1.7-2.2c0-4.2,0-8.3,0-12.5L83.7,36.8z"/>
	<path id="Path_22" d="M263,81.7h-4.8V67.6h1.5c0.7,0,1.4,0,2,0c0.5,0,0.9,0.1,0.8,0.7c0,0.1,0.1,0.3,0.1,0.4
		c1.2-1.5,2.9-1.3,4.5-1.3l-0.6,4.5c-0.8-0.2-1.5-0.3-2.3-0.4c-0.9-0.1-1.4,0.5-1.4,1.4c0,2.7,0,5.5,0,8.2L263,81.7z"/>
	<path id="Path_23" d="M71,35h-3.3v-2.4H71V35z"/>
	<path id="Path_24" d="M67.1,35h-3.4v-2.5c1,0,2.1,0,3.1,0c0.1,0,0.2,0.2,0.2,0.3C67.1,33.6,67.1,34.3,67.1,35z"/>
	<path id="Path_25" d="M122,52.9v-2.4h3.3v2.4H122z"/>
	<path id="Path_26" d="M125.9,52.9v-2.4h3.3v2.4H125.9z"/>
</g>
</svg>
